HIERARCHY
ROOT hip
{
	OFFSET 0.000000 0.000000 0.000000 
	CHANNELS 6 Xposition Yposition Zposition Xrotation Zrotation Yrotation
	JOINT abdomen
	{
		OFFSET 0.000000 3.402643 0.000000 
		CHANNELS 3 Xrotation Zrotation Yrotation
		JOINT chest
		{
			OFFSET 0.000000 8.438565 -0.680529 
			CHANNELS 3 Xrotation Zrotation Yrotation
			JOINT neck
			{
				OFFSET 0.000000 10.207942 -0.272212 
				CHANNELS 3 Xrotation Zrotation Yrotation
				JOINT head
				{
					OFFSET 0.000000 3.130431 0.000000 
					CHANNELS 3 Xrotation Zrotation Yrotation
					End Site
					{
						OFFSET 0.000000 3.130435 0.000000 
					}
				}
			}
			JOINT lCollar
			{
				OFFSET 3.470700 6.669187 -0.816635 
				CHANNELS 3 Yrotation Zrotation Xrotation
				JOINT lShldr
				{
					OFFSET 3.198488 0.000000 0.000000 
					CHANNELS 3 Zrotation Yrotation Xrotation
					JOINT lForeArm
					{
						OFFSET 10.139888 0.000000 0.000000 
						CHANNELS 3 Yrotation Zrotation Xrotation
						JOINT lHand
						{
							OFFSET 8.370511 0.000000 0.000000 
							CHANNELS 3 Zrotation Yrotation Xrotation
							End Site
							{
								OFFSET 4.083176 0.000000 0.000000 
							}
						}
					}
				}
			}
			JOINT rCollar
			{
				OFFSET -3.470700 6.669187 -0.816635 
				CHANNELS 3 Yrotation Zrotation Xrotation
				JOINT rShldr
				{
					OFFSET -3.198488 0.000000 0.000000 
					CHANNELS 3 Zrotation Yrotation Xrotation
					JOINT rForeArm
					{
						OFFSET -10.139888 0.000000 0.000000 
						CHANNELS 3 Yrotation Zrotation Xrotation
						JOINT rHand
						{
							OFFSET -8.370511 0.000000 0.000000 
							CHANNELS 3 Zrotation Yrotation Xrotation
							End Site
							{
								OFFSET -4.083176 0.000000 0.000000 
							}
						}
					}
				}
			}
		}
	}
	JOINT lThigh
	{
		OFFSET 5.308129 -1.633274 1.361059 
		CHANNELS 3 Xrotation Zrotation Yrotation
		JOINT lShin
		{
			OFFSET -2.041588 -20.007561 0.000000 
			CHANNELS 3 Xrotation Zrotation Yrotation
			JOINT lFoot
			{
				OFFSET 0.000000 -19.190928 -1.224953 
				CHANNELS 3 Xrotation Yrotation Zrotation
				End Site
				{
					OFFSET 0.000000 -2.449906 4.627600 
				}
			}
		}
	}
	JOINT rThigh
	{
		OFFSET -5.308129 -1.633274 1.361059 
		CHANNELS 3 Xrotation Zrotation Yrotation
		JOINT rShin
		{
			OFFSET 2.041588 -20.007561 0.000000 
			CHANNELS 3 Xrotation Zrotation Yrotation
			JOINT rFoot
			{
				OFFSET 0.000000 -19.190928 -1.224953 
				CHANNELS 3 Xrotation Yrotation Zrotation
				End Site
				{
					OFFSET 0.000000 -2.449906 4.627600 
				}
			}
		}
	}
}
MOTION
Frames: 9
Frame Time: 0.033333
0.005785 39.312084 -0.749954 8.801548 -0.232178 -7.851657 0.000000 0.000000 0.000000 1.945824 -0.330008 6.328188 7.054997 2.060543 0.117463 -26.992737 -0.478427 -1.103559 -16.424381 18.275236 24.992462 -87.976952 -21.374386 -2.528651 -25.678167 13.115932 62.592743 -11.979125 -17.455490 -54.864670 4.079304 -16.665977 24.993311 63.755028 22.400288 64.383003 24.889650 -34.058971 3.157223 29.128025 9.309022 -79.792839 -45.347050 6.971065 13.716479 86.305176 14.150315 -0.062351 -35.592594 8.968290 3.735045 -46.389652 -2.197163 2.504917 79.642677 -4.227709 5.403502 -25.925795 -20.442001 23.168047 
-0.009224 40.822914 -0.479327 8.926859 -0.377576 -7.529519 0.000000 0.000000 0.000000 -0.298343 0.038815 6.455084 9.379256 2.080074 0.117465 -25.651165 -0.605331 -1.220841 -15.711732 18.438194 24.986620 -84.339272 -18.245262 -4.397500 -22.817375 11.000141 52.435608 -10.109724 -14.597505 -56.521858 2.634712 -17.115732 24.997683 61.861305 19.299128 63.935200 24.519703 -32.041740 -3.417912 28.542959 2.352873 -80.530434 -40.903831 6.668147 14.587300 79.453964 14.452979 0.080452 -29.781475 6.005992 -1.159992 -42.101109 -2.714674 2.106499 73.542603 -3.856887 4.984392 -21.503218 -17.924919 24.385448 
-0.033454 42.866585 -0.275082 9.986843 -0.600839 -7.090271 0.000000 0.000000 0.000000 -3.848907 0.494735 6.611587 12.261186 2.402338 0.127251 -23.924551 -0.790743 -1.504167 -14.960532 18.747244 24.993807 -80.638542 -14.733587 -6.357399 -20.162453 7.614892 38.879543 -8.957067 -10.414375 -58.352730 0.793519 -17.424416 24.749142 59.695370 15.894902 63.354900 23.765427 -30.243568 -8.545666 27.245466 -2.567840 -80.774742 -35.978531 6.490314 15.488557 69.618019 14.407396 0.312097 -19.979279 1.560417 -5.115453 -37.494305 -3.319903 1.666086 64.635948 -3.094508 4.348151 -13.398846 -14.077661 27.597073 
-0.050907 45.331509 -0.205552 12.044394 -0.902566 -6.387616 0.000000 0.000000 0.000000 -8.384777 0.940703 6.749058 15.262277 3.066395 0.156549 -22.412172 -1.132141 -1.973043 -14.606117 18.974648 24.987730 -76.661667 -11.236176 -8.510969 -19.619909 6.502717 34.745605 -9.405499 -8.288671 -58.934792 -1.136782 -17.346439 24.134623 56.823517 12.216474 62.365891 22.466011 -29.643946 -9.770293 27.031462 -4.487766 -80.885788 -31.448784 6.334289 16.254341 57.050350 13.869946 0.595675 -7.236279 -4.081378 -3.337334 -33.109665 -3.934801 1.253597 53.089809 -2.165676 3.452670 -0.730558 -9.593966 31.064636 
-0.051692 47.847736 -0.272421 14.000429 -1.234073 -5.714294 0.000000 0.000000 0.000000 -12.207940 1.299342 6.818189 17.825134 3.701151 0.196166 -21.754211 -1.531942 -2.325215 -14.970467 18.600559 24.988064 -71.980362 -8.101113 -11.091979 -19.282261 7.242723 37.070518 -9.099446 -8.542336 -58.937786 -2.599782 -16.602884 23.716347 52.522266 8.633063 60.498013 21.689024 -29.542013 -8.568748 27.182161 -5.715238 -80.939880 -27.721245 6.453104 16.865042 44.003777 13.066223 1.049270 5.412483 -10.149078 0.726334 -29.628607 -4.404260 0.946483 41.283146 -1.685845 2.411551 10.571229 -7.149216 30.995132 
-0.064199 50.173019 -0.397328 15.460551 -1.594707 -5.305023 0.000000 0.000000 0.000000 -15.033539 1.667641 6.868281 19.996922 4.189421 0.225436 -21.518852 -1.717202 -2.432889 -15.375630 17.864698 24.997799 -66.969414 -4.875882 -13.917521 -18.992495 8.317740 40.213108 -8.302380 -8.828766 -58.983540 -3.842739 -15.755035 23.405172 47.800751 5.753896 58.286880 20.670885 -29.008677 -7.290455 27.043844 -6.578720 -80.933975 -24.930079 7.040040 17.469702 33.201565 11.671918 1.331671 15.367189 -13.871513 3.875371 -27.051359 -4.598394 0.792051 31.459478 -1.552486 1.458112 17.636908 -7.604406 29.587290 
-0.086768 52.228096 -0.557507 16.242891 -1.984183 -5.140055 0.000000 0.000000 0.000000 -16.693678 2.055208 6.928458 21.726593 4.482388 0.225449 -21.607986 -1.736802 -2.364563 -15.737155 16.895046 24.989729 -61.949448 -1.366783 -16.830971 -18.853203 9.455796 42.728382 -7.202392 -8.634953 -59.181446 -4.892894 -14.964094 23.183403 42.940445 3.500179 55.983025 19.230686 -28.025990 -6.743767 26.515337 -7.142962 -80.896255 -23.122894 7.976996 17.995810 26.365677 10.140416 1.369750 21.165041 -14.668294 5.837417 -25.435719 -4.560031 0.723087 24.879417 -1.708895 0.799470 20.287825 -10.588206 27.821789 
-0.102143 53.813816 -0.727186 15.956941 -2.266143 -5.170074 0.000000 0.000000 0.000000 -16.725058 2.336002 6.998290 22.665300 4.589805 0.235186 -21.719728 -1.717429 -2.247133 -15.789280 16.440390 24.993137 -57.614239 2.200379 -19.470432 -18.874710 10.111829 42.010620 -6.320640 -7.527831 -59.568359 -5.637248 -14.912031 22.978453 38.686295 1.825745 54.036835 17.125385 -26.999386 -7.429023 25.904934 -6.852229 -80.839920 -22.557705 8.856887 18.364550 26.140495 9.124729 1.138699 19.016014 -11.540827 11.741595 -24.721142 -4.579186 0.653160 23.731504 -1.770983 0.730614 18.379385 -15.186333 27.035843 
-0.086437 54.944279 -0.883312 14.991353 -2.382817 -5.180632 0.000000 0.000000 0.000000 -15.608389 2.432778 7.027975 22.812902 4.667926 0.245715 -21.572018 -1.795565 -2.188873 -15.485840 17.627544 24.991945 -54.926773 4.800593 -21.232206 -18.644247 10.346210 39.032383 -6.137936 -6.870461 -59.788612 -5.963103 -15.908500 22.762882 35.212589 -0.265888 52.563145 15.946836 -26.963125 -7.644786 26.390753 -6.232975 -80.795341 -22.429634 9.578211 18.624722 29.445435 8.356240 0.793406 12.756412 -8.364707 30.184570 -24.115047 -4.881618 0.544064 25.100012 -1.585805 0.888169 15.961225 -17.236652 27.492622 
